Coordinates
version=1
nRows=15
nColumns=46
inDegrees=yes

Units are S.I. units (second, meters, Newtons, ...)
Angles are in degrees.

endheader
time	pelvis_tilt	pelvis_list	pelvis_rotation	pelvis_tx	pelvis_ty	pelvis_tz	bb_angle	bb_tx	bb_ty	bb_tz	hip_flexion_r	hip_adduction_r	hip_rotation_r	knee_angle_r	knee_angle_r_beta	ankle_angle_r	subtalar_angle_r	mtp_angle_r	crank_angle_r	hip_flexion_l	hip_adduction_l	hip_rotation_l	knee_angle_l	knee_angle_l_beta	ankle_angle_l	subtalar_angle_l	mtp_angle_l	crank_angle_l	lumbar_extension	lumbar_bending	lumbar_rotation	arm_flex_r	arm_add_r	arm_rot_r	elbow_flex_r	pro_sup_r	wrist_flex_r	wrist_dev_r	arm_flex_l	arm_add_l	arm_rot_l	elbow_flex_l	pro_sup_l	wrist_flex_l	wrist_dev_l
      0.00500000	    -24.48972146	      1.25374948	     -5.33940764	      0.03310096	      1.01837886	     -0.21463983	      0.00000000	      0.50000000	      0.00000000	      0.25000000	     81.31651477	     -5.09005168	     -3.51887418	     60.15579146	      1.04991663	      8.42057250	     -1.89376414	      0.00000000	      0.00000000	     61.98599710	     -7.44150566	      0.22078889	     75.09094125	      1.31058416	      7.59555402	    -11.25726977	      0.00000000	      0.00000000	    -42.35055758	      0.72449235	      1.53342214	     89.66757210	     -2.89924602	     27.40323950	     38.02625599	     30.21057565	      0.00000000	      0.00000000	     89.27129749	    -12.69653446	     31.58221183	     37.20130101	     31.47142344	      0.00000000	      0.00000000
      0.01000000	    -24.43287772	      1.18214528	     -5.40698137	      0.03314778	      1.01854852	     -0.21446434	      0.00000000	      0.50000000	      0.00000000	      0.25000000	     81.20674080	     -4.98531158	     -3.56229380	     60.10628491	      1.04905257	      8.50112038	     -1.85443822	      0.00000000	      0.00000000	     61.91244928	     -7.57092370	      0.22139258	     75.07527299	      1.31031070	      7.52459394	    -11.31604042	      0.00000000	      0.00000000	    -42.44930117	      0.74587010	      1.64073143	     89.66859141	     -2.78574227	     27.05276937	     37.91748894	     31.14259586	      0.00000000	      0.00000000	     89.25690258	    -12.65055426	     31.08910165	     37.23551014	     32.42066643	      0.00000000	      0.00000000
      0.01500000	    -24.51426349	      1.24329971	     -5.37697715	      0.03308442	      1.01831632	     -0.21453522	      0.00000000	      0.50000000	      0.00000000	      0.25000000	     81.35544668	     -5.03724564	     -3.51185975	     60.17125212	      1.05018646	      8.41734976	     -1.89963252	      0.00000000	      0.00000000	     62.01572700	     -7.50450969	      0.19839720	     75.11539951	      1.31101104	      7.90779286	    -11.14943171	      0.00000000	      0.00000000	    -42.31199388	      0.72353501	      1.60070922	     89.66890546	     -2.80518970	     27.08599017	     37.67330516	     31.79423784	      0.00000000	      0.00000000	     89.27299362	    -12.58170815	     31.18972318	     36.77356002	     33.13711041	      0.00000000	      0.00000000
      0.02000000	    -24.58774020	      1.30656642	     -5.42340744	      0.03304341	      1.01824082	     -0.21459973	      0.00000000	      0.50000000	      0.00000000	      0.25000000	     81.44841320	     -5.02894437	     -3.47000436	     60.14187039	      1.04967366	      8.36667090	     -1.86938424	      0.00000000	      0.00000000	     62.04671988	     -7.47610434	      0.17229794	     75.09410697	      1.31063942	      8.03744551	    -11.89481107	      0.00000000	      0.00000000	    -42.21083247	      0.66322975	      1.60883467	     89.66980089	     -2.80538207	     27.15339240	     37.55451781	     32.22777770	      0.00000000	      0.00000000	     89.27732826	    -12.56685450	     31.28747825	     36.54116275	     33.69974720	      0.00000000	      0.00000000
      0.02500000	    -24.62639696	      1.17756378	     -5.42708732	      0.03295343	      1.01786885	     -0.21443775	      0.00000000	      0.50000000	      0.00000000	      0.25000000	     81.51873511	     -4.95808717	     -3.53744165	     60.22700696	      1.05115957	      8.36020529	     -1.90028516	      0.00000000	      0.00000000	     62.04406919	     -7.53379060	      0.33229084	     75.00909179	      1.30915562	      8.08798617	    -11.89012926	      0.00000000	      0.00000000	    -42.17248468	      0.75259285	      1.64974577	     89.66924207	     -2.79546747	     27.36585706	     37.31648312	     32.58447954	      0.00000000	      0.00000000	     89.28110065	    -12.58230808	     31.28070197	     36.41850404	     34.25430431	      0.00000000	      0.00000000
      0.03000000	    -24.63952238	      1.16101086	     -5.41794190	      0.03289923	      1.01779971	     -0.21436485	      0.00000000	      0.50000000	      0.00000000	      0.25000000	     81.54819304	     -4.95739975	     -3.54417419	     60.25020246	      1.05156441	      8.39096324	     -1.86669205	      0.00000000	      0.00000000	     62.05009529	     -7.53955555	      0.34525269	     74.98883044	      1.30880199	      8.06902106	    -11.90001212	      0.00000000	      0.00000000	    -42.15227920	      0.76429051	      1.62726184	     89.67070970	     -2.76774332	     27.39796573	     37.20950811	     32.87749436	      0.00000000	      0.00000000	     89.27781471	    -12.58261270	     31.17270733	     36.38347034	     34.68415861	      0.00000000	      0.00000000
      0.03500000	    -24.65022031	      1.15098069	     -5.41414447	      0.03287906	      1.01778019	     -0.21435932	      0.00000000	      0.50000000	      0.00000000	      0.25000000	     81.56826759	     -4.96028232	     -3.55639576	     60.27291953	      1.05196090	      8.41494501	     -1.84124579	      0.00000000	      0.00000000	     62.04717569	     -7.52910583	      0.36741384	     74.96096592	      1.30831567	      8.05429144	    -11.90122377	      0.00000000	      0.00000000	    -42.14548785	      0.77129193	      1.60556177	     89.67245913	     -2.70826860	     27.34549824	     37.12301705	     33.16502687	      0.00000000	      0.00000000	     89.26858455	    -12.59501683	     30.97797270	     36.39432203	     35.08919708	      0.00000000	      0.00000000
      0.04000000	    -24.64912502	      1.14593866	     -5.41830930	      0.03283739	      1.01776513	     -0.21429937	      0.00000000	      0.50000000	      0.00000000	      0.25000000	     81.57538803	     -4.95303155	     -3.56163723	     60.28319197	      1.05214018	      8.42774796	     -1.85419017	      0.00000000	      0.00000000	     62.04268883	     -7.54108766	      0.36442224	     74.94781309	      1.30808611	      8.04221969	    -11.87315280	      0.00000000	      0.00000000	    -42.14175393	      0.76593241	      1.61637817	     89.67212268	     -2.73723682	     27.35781372	     37.08387198	     33.45123577	      0.00000000	      0.00000000	     89.27453037	    -12.59792437	     30.89965894	     36.30644600	     35.49747200	      0.00000000	      0.00000000
      0.04500000	    -24.63100681	      1.17536239	     -5.38893135	      0.03283510	      1.01778691	     -0.21433602	      0.00000000	      0.50000000	      0.00000000	      0.25000000	     81.57677923	     -5.00990678	     -3.55927003	     60.31447118	      1.05268611	      8.46283165	     -1.81688057	      0.00000000	      0.00000000	     62.01005953	     -7.47798263	      0.36405732	     74.91174767	      1.30745665	      7.99773170	    -11.95542319	      0.00000000	      0.00000000	    -42.16653867	      0.76700860	      1.39680173	     89.67911823	     -2.21673136	     26.61585798	     36.40024614	     34.99983404	      0.00000000	      0.00000000	     89.22607530	    -12.48857189	     29.39028576	     36.31986379	     36.90753245	      0.00000000	      0.00000000
      0.05000000	    -24.65010498	      1.09286076	     -5.44498426	      0.03282826	      1.01773252	     -0.21419039	      0.00000000	      0.50000000	      0.00000000	      0.25000000	     81.57957155	     -4.91038318	     -3.60420843	     60.31581803	      1.05270962	      8.46394963	     -1.86241432	      0.00000000	      0.00000000	     62.03062412	     -7.60764793	      0.39959895	     74.91988281	      1.30759863	      8.06651475	    -11.80032739	      0.00000000	      0.00000000	    -42.13945252	      0.78443603	      1.76115508	     89.66806478	     -2.91495088	     27.29172795	     36.97450389	     35.34097134	      0.00000000	      0.00000000	     89.30161238	    -12.43269914	     30.82374672	     35.66551896	     37.45043285	      0.00000000	      0.00000000
      0.05500000	    -24.66499099	      1.11123137	     -5.42052921	      0.03281309	      1.01767360	     -0.21422527	      0.00000000	      0.50000000	      0.00000000	      0.25000000	     81.62210334	     -4.95381614	     -3.60507780	     60.35968599	      1.05347526	      8.52843222	     -1.77799599	      0.00000000	      0.00000000	     62.03761657	     -7.55502376	      0.40308011	     74.88642870	      1.30701475	      8.00170356	    -11.90743934	      0.00000000	      0.00000000	    -42.12390191	      0.78650690	      1.63332441	     89.67487913	     -2.72836374	     27.15173133	     36.66040912	     35.68283987	      0.00000000	      0.00000000	     89.27055060	    -12.54678578	     30.37434978	     35.90363300	     37.86942888	      0.00000000	      0.00000000
      0.06000000	    -24.67655750	      1.11452405	     -5.42108713	      0.03280329	      1.01761802	     -0.21419188	      0.00000000	      0.50000000	      0.00000000	      0.25000000	     81.64280485	     -4.95544113	     -3.60359944	     60.37414657	      1.05372764	      8.54953573	     -1.76729003	      0.00000000	      0.00000000	     62.03659058	     -7.54852953	      0.40342653	     74.86860761	      1.30670371	      8.02297701	    -11.89773570	      0.00000000	      0.00000000	    -42.09944096	      0.77036573	      1.60992546	     89.67389708	     -2.73055065	     27.22051003	     36.66538176	     35.60513532	      0.00000000	      0.00000000	     89.27326381	    -12.56456963	     30.42316573	     35.83356812	     37.95835394	      0.00000000	      0.00000000
      0.06500000	    -24.68094193	      1.10962104	     -5.42252888	      0.03279779	      1.01758311	     -0.21416416	      0.00000000	      0.50000000	      0.00000000	      0.25000000	     81.66037794	     -4.95945430	     -3.61781736	     60.40282462	      1.05422817	      8.56844759	     -1.74423423	      0.00000000	      0.00000000	     62.02878792	     -7.55047131	      0.40792157	     74.84941145	      1.30636867	      8.02159197	    -11.92292709	      0.00000000	      0.00000000	    -42.09137087	      0.77698108	      1.61086800	     89.67435356	     -2.72967567	     27.26231807	     36.66654436	     35.52718191	      0.00000000	      0.00000000	     89.27072471	    -12.58126312	     30.42990000	     35.80621778	     38.02834496	      0.00000000	      0.00000000
      0.07000000	    -24.60079909	      1.00315614	     -5.42688065	      0.03283742	      1.01779046	     -0.21414487	      0.00000000	      0.50000000	      0.00000000	      0.25000000	     81.51763090	     -4.93487452	     -3.73817189	     60.36254564	      1.05352517	      8.66073326	     -1.71714006	      0.00000000	      0.00000000	     61.92360958	     -7.61342385	      0.48364008	     74.81167411	      1.30571003	      7.99145191	    -11.99267766	      0.00000000	      0.00000000	    -42.23425742	      0.86207151	      1.66751033	     89.67652434	     -2.64225148	     26.95535667	     36.67338363	     35.86721317	      0.00000000	      0.00000000	     89.24932501	    -12.59414440	     29.90194247	     36.12133596	     38.32737312	      0.00000000	      0.00000000
      0.07500000	    -24.67121017	      1.06789648	     -5.40521109	      0.03277948	      1.01758703	     -0.21416237	      0.00000000	      0.50000000	      0.00000000	      0.25000000	     81.64869144	     -4.98178178	     -3.68190526	     60.41819034	      1.05449635	      8.60500607	     -1.67334388	      0.00000000	      0.00000000	     61.99594360	     -7.55063866	      0.45575421	     74.81020294	      1.30568436	      8.04626041	    -11.95982052	      0.00000000	      0.00000000	    -42.11510359	      0.81570492	      1.54215451	     89.67860681	     -2.48683444	     26.82410063	     36.33625193	     36.31318705	      0.00000000	      0.00000000	     89.23922923	    -12.57711582	     29.58418752	     35.91882024	     38.67148248	      0.00000000	      0.00000000
